<svg xmlns="http://www.w3.org/2000/svg" xmlns:xlink="http://www.w3.org/1999/xlink" width="1517pt" height="1556pt" viewBox="0 0 1517.1 1556"><style type="text/css">@font-face{font-family:Bonk;src:url(./Impact.ttf)}</style><g id="graph0" class="graph" transform="scale(1 1) rotate(0) translate(4 1552)"><title>G</title><polygon fill="#eee" stroke="transparent" points="-4 4 -4 -1552 1513.1 -1552 1513.1 4 -4 4"/><g id="node1" class="node"><title>n0</title><polygon fill="#104e8b" stroke="#000" points="1065.1 -1548 1011.1 -1548 1011.1 -1512 1065.1 -1512 1065.1 -1548"/><text x="1038.1" y="-1525.8" fill="#fff" font-family="Times New Roman" font-size="14" text-anchor="middle">Init</text></g><g id="node2" class="node"><title>n1</title><polygon fill="#fff" stroke="#000" points="1140.579 -1476 935.621 -1476 935.621 -1440 1140.579 -1440 1140.579 -1476"/><text x="1038.1" y="-1453.8" fill="#000" font-family="Times New Roman" font-size="14" text-anchor="middle">CheckShouldRunOptionalChecks</text></g><g id="edge1" class="edge"><title>n0-&gt;n1</title><path fill="none" stroke="#333" d="M1038.0996,-1511.8314C1038.0996,-1504.131 1038.0996,-1494.9743 1038.0996,-1486.4166"/><polygon fill="#333" stroke="#333" points="1041.6 -1486.413 1038.1 -1476.413 1034.6 -1486.413 1041.6 -1486.413"/><text x="1029.104" y="-1506.431" fill="#000" font-family="Open Sans, Helvetica Neue, Helvetica, Arial, sans-serif" font-size="6" text-anchor="middle">success</text></g><g id="node10" class="node"><title>n9</title><polygon fill="#dc143c" stroke="#000" points="1364.1 -612 1310.1 -612 1310.1 -576 1364.1 -576 1364.1 -612"/><text x="1337.1" y="-589.8" fill="#fff" font-family="Times New Roman" font-size="14" text-anchor="middle">Failed</text></g><g id="edge2" class="edge"><title>n0-&gt;n9</title><path fill="none" stroke="#669" d="M1065.1143,-1527.6811C1165.1957,-1518.3594 1509.0996,-1479.5234 1509.0996,-1386 1509.0996,-1386 1509.0996,-1386 1509.0996,-738 1509.0996,-668.0822 1424.5077,-625.4091 1373.9715,-606.1542"/><polygon fill="none" stroke="#669" points="1374.947 -602.784 1364.353 -602.614 1372.529 -609.353 1374.947 -602.784"/><text x="1072.943" y="-1529.481" fill="#000" font-family="Open Sans, Helvetica Neue, Helvetica, Arial, sans-serif" font-size="6" text-anchor="middle">failure</text></g><g id="node3" class="node"><title>n2</title><polygon fill="#fff" stroke="#000" points="1119.265 -1404 956.934 -1404 956.934 -1368 1119.265 -1368 1119.265 -1404"/><text x="1038.1" y="-1381.8" fill="#000" font-family="Times New Roman" font-size="14" text-anchor="middle">CheckValidReleaseGroup</text></g><g id="edge3" class="edge"><title>n1-&gt;n2</title><path fill="none" stroke="#333" d="M1038.0996,-1439.8314C1038.0996,-1432.131 1038.0996,-1422.9743 1038.0996,-1414.4166"/><polygon fill="#333" stroke="#333" points="1041.6 -1414.413 1038.1 -1404.413 1034.6 -1414.413 1041.6 -1414.413"/><text x="1029.104" y="-1434.431" fill="#000" font-family="Open Sans, Helvetica Neue, Helvetica, Arial, sans-serif" font-size="6" text-anchor="middle">success</text></g><g id="node7" class="node"><title>n6</title><polygon fill="#fff" stroke="#000" points="1031.499 -1116 826.7 -1116 826.7 -1080 1031.499 -1080 1031.499 -1116"/><text x="929.1" y="-1093.8" fill="#000" font-family="Times New Roman" font-size="14" text-anchor="middle">CheckNoPrereleaseDependencies</text></g><g id="edge4" class="edge"><title>n1-&gt;n6</title><path fill="none" stroke="#777" d="M992.2243,-1439.8165C976.0143,-1431.2377 959.0985,-1419.4321 948.0996,-1404 924.372,-1370.7087 929.0996,-1354.8816 929.0996,-1314 929.0996,-1314 929.0996,-1314 929.0996,-1242 929.0996,-1201.876 929.0996,-1155.4631 929.0996,-1126.4177"/><polygon fill="none" stroke="#777" points="932.6 -1126.185 929.1 -1116.185 925.6 -1126.185 932.6 -1126.185"/><text x="984.396" y="-1434.417" fill="#000" font-family="Open Sans, Helvetica Neue, Helvetica, Arial, sans-serif" font-size="6" text-anchor="middle">failure</text></g><g id="node4" class="node"><title>n3</title><polygon fill="#fff" stroke="#000" points="1081.645 -1332 994.554 -1332 994.554 -1296 1081.645 -1296 1081.645 -1332"/><text x="1038.1" y="-1309.8" fill="#000" font-family="Times New Roman" font-size="14" text-anchor="middle">CheckPolicy</text></g><g id="edge5" class="edge"><title>n2-&gt;n3</title><path fill="none" stroke="#333" d="M1038.0996,-1367.8314C1038.0996,-1360.131 1038.0996,-1350.9743 1038.0996,-1342.4166"/><polygon fill="#333" stroke="#333" points="1041.6 -1342.413 1038.1 -1332.413 1034.6 -1342.413 1041.6 -1342.413"/><text x="1029.104" y="-1362.431" fill="#000" font-family="Open Sans, Helvetica Neue, Helvetica, Arial, sans-serif" font-size="6" text-anchor="middle">success</text></g><g id="edge6" class="edge"><title>n2-&gt;n9</title><path fill="none" stroke="#669" d="M1119.2895,-1375.8611C1244.6674,-1357.9064 1471.0996,-1315.3296 1471.0996,-1242 1471.0996,-1242 1471.0996,-1242 1471.0996,-738 1471.0996,-680.3389 1412.8068,-636.0968 1373.1165,-612.6562"/><polygon fill="none" stroke="#669" points="1374.634 -609.492 1364.216 -607.561 1371.156 -615.567 1374.634 -609.492"/><text x="1127.118" y="-1377.661" fill="#000" font-family="Open Sans, Helvetica Neue, Helvetica, Arial, sans-serif" font-size="6" text-anchor="middle">failure</text></g><g id="node5" class="node"><title>n4</title><polygon fill="#fff" stroke="#000" points="1096.678 -1260 979.521 -1260 979.521 -1224 1096.678 -1224 1096.678 -1260"/><text x="1038.1" y="-1237.8" fill="#000" font-family="Times New Roman" font-size="14" text-anchor="middle">CheckHasRemote</text></g><g id="edge7" class="edge"><title>n3-&gt;n4</title><path fill="none" stroke="#333" d="M1038.0996,-1295.8314C1038.0996,-1288.131 1038.0996,-1278.9743 1038.0996,-1270.4166"/><polygon fill="#333" stroke="#333" points="1041.6 -1270.413 1038.1 -1260.413 1034.6 -1270.413 1041.6 -1270.413"/><text x="1029.104" y="-1290.431" fill="#000" font-family="Open Sans, Helvetica Neue, Helvetica, Arial, sans-serif" font-size="6" text-anchor="middle">success</text></g><g id="edge8" class="edge"><title>n3-&gt;n9</title><path fill="none" stroke="#669" d="M1081.8807,-1307.5657C1184.7238,-1291.2234 1433.0996,-1244.0861 1433.0996,-1170 1433.0996,-1170 1433.0996,-1170 1433.0996,-738 1433.0996,-689.9377 1395.6179,-645.7161 1367.4952,-619.3006"/><polygon fill="none" stroke="#669" points="1369.599 -616.483 1359.85 -612.334 1364.884 -621.657 1369.599 -616.483"/><text x="1089.709" y="-1309.366" fill="#000" font-family="Open Sans, Helvetica Neue, Helvetica, Arial, sans-serif" font-size="6" text-anchor="middle">failure</text></g><g id="node6" class="node"><title>n5</title><polygon fill="#fff" stroke="#000" points="1113.878 -1188 962.322 -1188 962.322 -1152 1113.878 -1152 1113.878 -1188"/><text x="1038.1" y="-1165.8" fill="#000" font-family="Times New Roman" font-size="14" text-anchor="middle">CheckBranchUpToDate</text></g><g id="edge9" class="edge"><title>n4-&gt;n5</title><path fill="none" stroke="#333" d="M1038.0996,-1223.8314C1038.0996,-1216.131 1038.0996,-1206.9743 1038.0996,-1198.4166"/><polygon fill="#333" stroke="#333" points="1041.6 -1198.413 1038.1 -1188.413 1034.6 -1198.413 1041.6 -1198.413"/><text x="1029.104" y="-1218.431" fill="#000" font-family="Open Sans, Helvetica Neue, Helvetica, Arial, sans-serif" font-size="6" text-anchor="middle">success</text></g><g id="edge10" class="edge"><title>n4-&gt;n9</title><path fill="none" stroke="#669" d="M1096.6511,-1230.9633C1197.9311,-1210.1859 1395.0996,-1161.5732 1395.0996,-1098 1395.0996,-1098 1395.0996,-1098 1395.0996,-738 1395.0996,-694.6562 1372.2104,-648.9417 1355.1903,-620.9402"/><polygon fill="none" stroke="#669" points="1357.96 -618.768 1349.685 -612.152 1352.028 -622.485 1357.96 -618.768"/><text x="1104.479" y="-1232.763" fill="#000" font-family="Open Sans, Helvetica Neue, Helvetica, Arial, sans-serif" font-size="6" text-anchor="middle">failure</text></g><g id="edge11" class="edge"><title>n5-&gt;n6</title><path fill="none" stroke="#333" d="M1010.5943,-1151.8314C996.7816,-1142.7074 979.874,-1131.539 965.0467,-1121.7449"/><polygon fill="#333" stroke="#333" points="966.869 -1118.754 956.596 -1116.163 963.011 -1124.595 966.869 -1118.754"/><text x="1001.599" y="-1146.431" fill="#000" font-family="Open Sans, Helvetica Neue, Helvetica, Arial, sans-serif" font-size="6" text-anchor="middle">success</text></g><g id="edge12" class="edge"><title>n5-&gt;n9</title><path fill="none" stroke="#669" d="M1113.2942,-1151.9489C1207.6046,-1127.0729 1357.0996,-1079.2437 1357.0996,-1026 1357.0996,-1026 1357.0996,-1026 1357.0996,-738 1357.0996,-697.3124 1349.1692,-650.7676 1343.2959,-621.8757"/><polygon fill="none" stroke="#669" points="1346.719 -621.144 1341.244 -612.073 1339.867 -622.579 1346.719 -621.144"/><text x="1105.466" y="-1146.549" fill="#000" font-family="Open Sans, Helvetica Neue, Helvetica, Arial, sans-serif" font-size="6" text-anchor="middle">failure</text></g><g id="node8" class="node"><title>n7</title><polygon fill="purple" stroke="#000" points="994.392 -1044 863.808 -1044 863.808 -1008 994.392 -1008 994.392 -1044"/><text x="929.1" y="-1021.8" fill="#fff" font-family="Times New Roman" font-size="14" text-anchor="middle">AskForReleaseType</text></g><g id="edge13" class="edge"><title>n6-&gt;n7</title><path fill="none" stroke="#333" d="M929.0996,-1079.8314C929.0996,-1072.131 929.0996,-1062.9743 929.0996,-1054.4166"/><polygon fill="#333" stroke="#333" points="932.6 -1054.413 929.1 -1044.413 925.6 -1054.413 932.6 -1054.413"/><text x="920.104" y="-1074.431" fill="#000" font-family="Open Sans, Helvetica Neue, Helvetica, Arial, sans-serif" font-size="6" text-anchor="middle">success</text></g><g id="node9" class="node"><title>n8</title><polygon fill="#4682b4" stroke="#000" points="767.479 -1044 570.72 -1044 570.72 -1008 767.479 -1008 767.479 -1044"/><text x="669.1" y="-1021.8" fill="#fff" font-family="Times New Roman" font-size="14" text-anchor="middle">DoBumpReleasedDependencies</text></g><g id="edge14" class="edge"><title>n6-&gt;n8</title><path fill="none" stroke="#777" d="M863.8262,-1079.9243C827.51,-1069.8675 782.146,-1057.3052 744.3417,-1046.8363"/><polygon fill="none" stroke="#777" points="744.971 -1043.379 734.4 -1044.083 743.103 -1050.125 744.971 -1043.379"/><text x="855.998" y="-1074.524" fill="#000" font-family="Open Sans, Helvetica Neue, Helvetica, Arial, sans-serif" font-size="6" text-anchor="middle">failure</text></g><g id="node24" class="node"><title>n23</title><polygon fill="#4682b4" stroke="#000" points="900.839 -972 793.36 -972 793.36 -936 900.839 -936 900.839 -972"/><text x="847.1" y="-949.8" fill="#fff" font-family="Times New Roman" font-size="14" text-anchor="middle">DoPatchRelease</text></g><g id="edge15" class="edge"><title>n7-&gt;n23</title><path fill="none" stroke="#333" d="M908.4075,-1007.8314C898.4048,-999.0485 886.2446,-988.3712 875.3997,-978.8489"/><polygon fill="#333" stroke="#333" points="877.609 -976.131 867.785 -972.163 872.99 -981.391 877.609 -976.131"/><text x="901.91" y="-1002.431" fill="#000" font-family="Open Sans, Helvetica Neue, Helvetica, Arial, sans-serif" font-size="6" text-anchor="middle">patch</text></g><g id="node36" class="node"><title>n35</title><polygon fill="#4682b4" stroke="#000" points="984.733 -684 873.466 -684 873.466 -648 984.733 -648 984.733 -684"/><text x="929.1" y="-661.8" fill="#fff" font-family="Times New Roman" font-size="14" text-anchor="middle">DoMinorRelease</text></g><g id="edge16" class="edge"><title>n7-&gt;n35</title><path fill="none" stroke="#333" d="M929.0996,-1007.8146C929.0996,-980.4983 929.0996,-927.25 929.0996,-882 929.0996,-882 929.0996,-882 929.0996,-810 929.0996,-769.876 929.0996,-723.4631 929.0996,-694.4177"/><polygon fill="#333" stroke="#333" points="932.6 -694.185 929.1 -684.185 925.6 -694.185 932.6 -694.185"/><text x="921.933" y="-1002.415" fill="#000" font-family="Open Sans, Helvetica Neue, Helvetica, Arial, sans-serif" font-size="6" text-anchor="middle">minor</text></g><g id="node45" class="node"><title>n44</title><polygon fill="#4682b4" stroke="#000" points="1101.447 -972 990.752 -972 990.752 -936 1101.447 -936 1101.447 -972"/><text x="1046.1" y="-949.8" fill="#fff" font-family="Times New Roman" font-size="14" text-anchor="middle">DoMajorRelease</text></g><g id="edge17" class="edge"><title>n7-&gt;n44</title><path fill="none" stroke="#333" d="M958.6236,-1007.8314C973.5887,-998.6221 991.9382,-987.3301 1007.9599,-977.4706"/><polygon fill="#333" stroke="#333" points="1009.903 -980.385 1016.585 -972.163 1006.234 -974.423 1009.903 -980.385"/><text x="951.626" y="-1002.431" fill="#000" font-family="Open Sans, Helvetica Neue, Helvetica, Arial, sans-serif" font-size="6" text-anchor="middle">major</text></g><g id="node11" class="node"><title>n10</title><polygon fill="#fff" stroke="#000" points="774.999 -972 563.2 -972 563.2 -936 774.999 -936 774.999 -972"/><text x="669.1" y="-949.8" fill="#000" font-family="Times New Roman" font-size="14" text-anchor="middle">CheckNoPrereleaseDependencies2</text></g><g id="edge18" class="edge"><title>n8-&gt;n10</title><path fill="none" stroke="#333" d="M669.0996,-1007.8314C669.0996,-1000.131 669.0996,-990.9743 669.0996,-982.4166"/><polygon fill="#333" stroke="#333" points="672.6 -982.413 669.1 -972.413 665.6 -982.413 672.6 -982.413"/><text x="660.104" y="-1002.431" fill="#000" font-family="Open Sans, Helvetica Neue, Helvetica, Arial, sans-serif" font-size="6" text-anchor="middle">success</text></g><g id="node14" class="node"><title>n13</title><polygon fill="#fff" stroke="#000" points="544.999 -972 333.2 -972 333.2 -936 544.999 -936 544.999 -972"/><text x="439.1" y="-949.8" fill="#000" font-family="Times New Roman" font-size="14" text-anchor="middle">CheckNoPrereleaseDependencies3</text></g><g id="edge19" class="edge"><title>n8-&gt;n13</title><path fill="none" stroke="#333" d="M611.3578,-1007.9243C579.5053,-997.9531 539.7847,-985.5188 506.5152,-975.104"/><polygon fill="#333" stroke="#333" points="507.454 -971.731 496.865 -972.083 505.363 -978.411 507.454 -971.731"/><text x="603.53" y="-1002.524" fill="#000" font-family="Open Sans, Helvetica Neue, Helvetica, Arial, sans-serif" font-size="6" text-anchor="middle">failure</text></g><g id="node12" class="node"><title>n11</title><polygon fill="#fff" stroke="#000" points="769.203 -900 602.996 -900 602.996 -864 769.203 -864 769.203 -900"/><text x="686.1" y="-877.8" fill="#000" font-family="Times New Roman" font-size="14" text-anchor="middle">CheckShouldCommitDeps</text></g><g id="edge20" class="edge"><title>n10-&gt;n11</title><path fill="none" stroke="#333" d="M673.3894,-935.8314C675.2076,-928.131 677.3695,-918.9743 679.3901,-910.4166"/><polygon fill="#333" stroke="#333" points="682.86 -910.95 681.752 -900.413 676.048 -909.341 682.86 -910.95"/><text x="664.394" y="-930.431" fill="#000" font-family="Open Sans, Helvetica Neue, Helvetica, Arial, sans-serif" font-size="6" text-anchor="middle">success</text></g><g id="node15" class="node"><title>n14</title><polygon fill="#dc143c" stroke="#000" points="584.673 -900 439.527 -900 439.527 -864 584.673 -864 584.673 -900"/><text x="512.1" y="-877.8" fill="#fff" font-family="Times New Roman" font-size="14" text-anchor="middle">PromptToReleaseDeps</text></g><g id="edge21" class="edge"><title>n10-&gt;n14</title><path fill="none" stroke="#225" d="M629.4819,-935.8314C608.5774,-926.2446 582.7513,-914.4008 560.6508,-904.2655"/><polygon fill="#225" stroke="#225" points="561.981 -901.025 551.432 -900.038 559.063 -907.388 561.981 -901.025"/><text x="621.654" y="-930.431" fill="#000" font-family="Open Sans, Helvetica Neue, Helvetica, Arial, sans-serif" font-size="6" text-anchor="middle">failure</text></g><g id="node13" class="node"><title>n12</title><polygon fill="#dc143c" stroke="#000" points="790.262 -828 671.937 -828 671.937 -792 790.262 -792 790.262 -828"/><text x="731.1" y="-805.8" fill="#fff" font-family="Times New Roman" font-size="14" text-anchor="middle">PromptToPRDeps</text></g><g id="edge22" class="edge"><title>n11-&gt;n12</title><path fill="none" stroke="#225" d="M697.455,-863.8314C702.5322,-855.7079 708.6223,-845.9637 714.2172,-837.0118"/><polygon fill="#225" stroke="#225" points="717.259 -838.748 719.591 -828.413 711.323 -835.038 717.259 -838.748"/><text x="688.46" y="-858.431" fill="#000" font-family="Open Sans, Helvetica Neue, Helvetica, Arial, sans-serif" font-size="6" text-anchor="middle">success</text></g><g id="node19" class="node"><title>n18</title><polygon fill="#dc143c" stroke="#000" points="654.042 -828 506.157 -828 506.157 -792 654.042 -792 654.042 -828"/><text x="580.1" y="-805.8" fill="#fff" font-family="Times New Roman" font-size="14" text-anchor="middle">PromptToCommitDeps</text></g><g id="edge23" class="edge"><title>n11-&gt;n18</title><path fill="none" stroke="#225" d="M659.3513,-863.8314C646.0443,-854.7927 629.7836,-843.7476 615.4621,-834.0198"/><polygon fill="#225" stroke="#225" points="617.078 -830.886 606.839 -828.163 613.145 -836.677 617.078 -830.886"/><text x="651.523" y="-858.431" fill="#000" font-family="Open Sans, Helvetica Neue, Helvetica, Arial, sans-serif" font-size="6" text-anchor="middle">failure</text></g><g id="edge24" class="edge"><title>n13-&gt;n14</title><path fill="none" stroke="#225" d="M457.5206,-935.8314C466.2525,-927.219 476.8313,-916.7851 486.3419,-907.4048"/><polygon fill="#225" stroke="#225" points="489.023 -909.677 493.685 -900.163 484.107 -904.693 489.023 -909.677"/><text x="449.692" y="-930.431" fill="#000" font-family="Open Sans, Helvetica Neue, Helvetica, Arial, sans-serif" font-size="6" text-anchor="middle">failure</text></g><g id="node16" class="node"><title>n15</title><polygon fill="#fff" stroke="#000" points="421.461 -900 170.738 -900 170.738 -864 421.461 -864 421.461 -900"/><text x="296.1" y="-877.8" fill="#000" font-family="Times New Roman" font-size="14" text-anchor="middle">CheckShouldCommitReleasedDepsBump</text></g><g id="edge25" class="edge"><title>n13-&gt;n15</title><path fill="none" stroke="#333" d="M403.0147,-935.8314C384.3007,-926.4089 361.2564,-914.8062 341.3596,-904.7883"/><polygon fill="#333" stroke="#333" points="342.679 -901.534 332.173 -900.163 339.531 -907.786 342.679 -901.534"/><text x="394.019" y="-930.431" fill="#000" font-family="Open Sans, Helvetica Neue, Helvetica, Arial, sans-serif" font-size="6" text-anchor="middle">success</text></g><g id="node17" class="node"><title>n16</title><polygon fill="#dc143c" stroke="#000" points="454.019 -828 250.18 -828 250.18 -792 454.019 -792 454.019 -828"/><text x="352.1" y="-805.8" fill="#fff" font-family="Times New Roman" font-size="14" text-anchor="middle">PromptToPRReleasedDepsBump</text></g><g id="edge26" class="edge"><title>n15-&gt;n16</title><path fill="none" stroke="#225" d="M310.2308,-863.8314C316.6807,-855.5386 324.4441,-845.557 331.5248,-836.4533"/><polygon fill="#225" stroke="#225" points="334.401 -838.456 337.778 -828.413 328.876 -834.158 334.401 -838.456"/><text x="301.236" y="-858.431" fill="#000" font-family="Open Sans, Helvetica Neue, Helvetica, Arial, sans-serif" font-size="6" text-anchor="middle">success</text></g><g id="node18" class="node"><title>n17</title><polygon fill="#dc143c" stroke="#000" points="232.299 -828 -.1 -828 -.1 -792 232.299 -792 232.299 -828"/><text x="116.1" y="-805.8" fill="#fff" font-family="Times New Roman" font-size="14" text-anchor="middle">PromptToCommitReleasedDepsBump</text></g><g id="edge27" class="edge"><title>n15-&gt;n17</title><path fill="none" stroke="#225" d="M250.678,-863.8314C226.3901,-854.1162 196.3074,-842.0831 170.7476,-831.8592"/><polygon fill="#225" stroke="#225" points="171.779 -828.502 161.195 -828.038 169.179 -835.002 171.779 -828.502"/><text x="242.85" y="-858.431" fill="#000" font-family="Open Sans, Helvetica Neue, Helvetica, Arial, sans-serif" font-size="6" text-anchor="middle">failure</text></g><g id="node20" class="node"><title>n19</title><polygon fill="#4682b4" stroke="#000" points="723.231 -180 576.968 -180 576.968 -144 723.231 -144 723.231 -180"/><text x="650.1" y="-157.8" fill="#fff" font-family="Times New Roman" font-size="14" text-anchor="middle">DoReleaseGroupBump</text></g><g id="node21" class="node"><title>n20</title><polygon fill="#fff" stroke="#000" points="656.665 -108 485.534 -108 485.534 -72 656.665 -72 656.665 -108"/><text x="571.1" y="-85.8" fill="#000" font-family="Times New Roman" font-size="14" text-anchor="middle">CheckShouldCommitBump</text></g><g id="edge28" class="edge"><title>n19-&gt;n20</title><path fill="none" stroke="#333" d="M630.1646,-143.8314C620.6213,-135.1337 609.0397,-124.5783 598.669,-115.1265"/><polygon fill="#333" stroke="#333" points="600.777 -112.312 591.028 -108.163 596.062 -117.486 600.777 -112.312"/><text x="621.169" y="-138.431" fill="#000" font-family="Open Sans, Helvetica Neue, Helvetica, Arial, sans-serif" font-size="6" text-anchor="middle">success</text></g><g id="node22" class="node"><title>n21</title><polygon fill="#dc143c" stroke="#000" points="633.223 -36 508.976 -36 508.976 0 633.223 0 633.223 -36"/><text x="571.1" y="-13.8" fill="#fff" font-family="Times New Roman" font-size="14" text-anchor="middle">PromptToPRBump</text></g><g id="edge29" class="edge"><title>n20-&gt;n21</title><path fill="none" stroke="#225" d="M571.0996,-71.8314C571.0996,-64.131 571.0996,-54.9743 571.0996,-46.4166"/><polygon fill="#225" stroke="#225" points="574.6 -46.413 571.1 -36.413 567.6 -46.413 574.6 -46.413"/><text x="562.104" y="-66.431" fill="#000" font-family="Open Sans, Helvetica Neue, Helvetica, Arial, sans-serif" font-size="6" text-anchor="middle">success</text></g><g id="node23" class="node"><title>n22</title><polygon fill="#dc143c" stroke="#000" points="804.503 -36 651.696 -36 651.696 0 804.503 0 804.503 -36"/><text x="728.1" y="-13.8" fill="#fff" font-family="Times New Roman" font-size="14" text-anchor="middle">PromptToCommitBump</text></g><g id="edge30" class="edge"><title>n20-&gt;n22</title><path fill="none" stroke="#669" d="M610.7173,-71.8314C631.6218,-62.2446 657.4479,-50.4008 679.5484,-40.2655"/><polygon fill="none" stroke="#669" points="681.136 -43.388 688.767 -36.038 678.218 -37.025 681.136 -43.388"/><text x="602.889" y="-66.431" fill="#000" font-family="Open Sans, Helvetica Neue, Helvetica, Arial, sans-serif" font-size="6" text-anchor="middle">failure</text></g><g id="node25" class="node"><title>n24</title><polygon fill="#fff" stroke="#000" points="793.452 -756 554.747 -756 554.747 -720 793.452 -720 793.452 -756"/><text x="674.1" y="-733.8" fill="#000" font-family="Times New Roman" font-size="14" text-anchor="middle">CheckDoesReleaseFromReleaseBranch</text></g><g id="edge31" class="edge"><title>n23-&gt;n24</title><path fill="none" stroke="#333" d="M846.5627,-935.8219C844.6532,-903.1 836.1783,-833.8068 799.0996,-792 786.9235,-778.2712 770.6385,-767.9032 753.856,-760.1202"/><polygon fill="#333" stroke="#333" points="755.071 -756.832 744.504 -756.057 752.281 -763.252 755.071 -756.832"/><text x="837.567" y="-930.422" fill="#000" font-family="Open Sans, Helvetica Neue, Helvetica, Arial, sans-serif" font-size="6" text-anchor="middle">success</text></g><g id="node26" class="node"><title>n25</title><polygon fill="#fff" stroke="#000" points="750.429 -684 597.77 -684 597.77 -648 750.429 -648 750.429 -684"/><text x="674.1" y="-661.8" fill="#000" font-family="Times New Roman" font-size="14" text-anchor="middle">CheckOnReleaseBranch</text></g><g id="edge32" class="edge"><title>n24-&gt;n25</title><path fill="none" stroke="#333" d="M674.0996,-719.8314C674.0996,-712.131 674.0996,-702.9743 674.0996,-694.4166"/><polygon fill="#333" stroke="#333" points="677.6 -694.413 674.1 -684.413 670.6 -694.413 677.6 -694.413"/><text x="665.104" y="-714.431" fill="#000" font-family="Open Sans, Helvetica Neue, Helvetica, Arial, sans-serif" font-size="6" text-anchor="middle">success</text></g><g id="node27" class="node"><title>n26</title><polygon fill="#fff" stroke="#000" points="552.822 -324 417.377 -324 417.377 -288 552.822 -288 552.822 -324"/><text x="485.1" y="-301.8" fill="#000" font-family="Times New Roman" font-size="14" text-anchor="middle">CheckReleaseIsDone</text></g><g id="edge33" class="edge"><title>n24-&gt;n26</title><path fill="none" stroke="#777" d="M601.6433,-719.9452C541.6147,-700.1336 466.0996,-661.7474 466.0996,-594 466.0996,-594 466.0996,-594 466.0996,-450 466.0996,-409.5282 473.5676,-363.2037 479.1396,-334.2725"/><polygon fill="none" stroke="#777" points="482.648 -334.575 481.163 -324.084 475.782 -333.211 482.648 -334.575"/><text x="593.815" y="-714.545" fill="#000" font-family="Open Sans, Helvetica Neue, Helvetica, Arial, sans-serif" font-size="6" text-anchor="middle">failure</text></g><g id="edge35" class="edge"><title>n25-&gt;n9</title><path fill="none" stroke="#669" d="M750.811,-658.5168C785.4143,-655.1968 826.8043,-651.3027 864.0996,-648 1054.9974,-631.095 1111.5609,-663.4235 1300.3407,-611.5807"/><polygon fill="none" stroke="#669" points="1301.324 -614.94 1310.016 -608.883 1299.443 -608.197 1301.324 -614.94"/><text x="758.639" y="-660.317" fill="#000" font-family="Open Sans, Helvetica Neue, Helvetica, Arial, sans-serif" font-size="6" text-anchor="middle">failure</text></g><g id="edge34" class="edge"><title>n25-&gt;n26</title><path fill="none" stroke="#333" d="M623.5543,-647.9547C573.4429,-626.4388 504.0996,-585.2403 504.0996,-522 504.0996,-522 504.0996,-522 504.0996,-450 504.0996,-409.5282 496.6316,-363.2037 491.0596,-334.2725"/><polygon fill="#333" stroke="#333" points="494.417 -333.211 489.036 -324.084 487.551 -334.575 494.417 -333.211"/><text x="614.559" y="-642.555" fill="#000" font-family="Open Sans, Helvetica Neue, Helvetica, Arial, sans-serif" font-size="6" text-anchor="middle">success</text></g><g id="node28" class="node"><title>n27</title><polygon fill="#fff" stroke="#000" points="594.812 -252 375.387 -252 375.387 -216 594.812 -216 594.812 -252"/><text x="485.1" y="-229.8" fill="#000" font-family="Times New Roman" font-size="14" text-anchor="middle">CheckReleaseGroupIsBumpedPatch</text></g><g id="edge36" class="edge"><title>n26-&gt;n27</title><path fill="none" stroke="#333" d="M485.0996,-287.8314C485.0996,-280.131 485.0996,-270.9743 485.0996,-262.4166"/><polygon fill="#333" stroke="#333" points="488.6 -262.413 485.1 -252.413 481.6 -262.413 488.6 -262.413"/><text x="476.104" y="-282.431" fill="#000" font-family="Open Sans, Helvetica Neue, Helvetica, Arial, sans-serif" font-size="6" text-anchor="middle">success</text></g><g id="node32" class="node"><title>n31</title><polygon fill="#dc143c" stroke="#000" points="1178.407 -252 1061.792 -252 1061.792 -216 1178.407 -216 1178.407 -252"/><text x="1120.1" y="-229.8" fill="#fff" font-family="Times New Roman" font-size="14" text-anchor="middle">PromptToRelease</text></g><g id="edge37" class="edge"><title>n26-&gt;n31</title><path fill="none" stroke="#669" d="M552.9469,-289.3648C555.6939,-288.8709 558.4193,-288.4128 561.0996,-288 774.5163,-255.134 835.0998,-287.5939 1051.6802,-252.0533"/><polygon fill="none" stroke="#669" points="1052.492 -255.466 1061.778 -250.366 1051.338 -248.562 1052.492 -255.466"/><text x="560.775" y="-291.165" fill="#000" font-family="Open Sans, Helvetica Neue, Helvetica, Arial, sans-serif" font-size="6" text-anchor="middle">failure</text></g><g id="edge39" class="edge"><title>n27-&gt;n19</title><path fill="none" stroke="#777" d="M526.7361,-215.8314C548.8038,-206.2018 576.0903,-194.295 599.3853,-184.1299"/><polygon fill="none" stroke="#777" points="600.997 -187.245 608.763 -180.038 598.197 -180.83 600.997 -187.245"/><text x="518.908" y="-210.431" fill="#000" font-family="Open Sans, Helvetica Neue, Helvetica, Arial, sans-serif" font-size="6" text-anchor="middle">failure</text></g><g id="node29" class="node"><title>n28</title><polygon fill="#fff" stroke="#000" points="558.983 -180 411.216 -180 411.216 -144 558.983 -144 558.983 -180"/><text x="485.1" y="-157.8" fill="#000" font-family="Times New Roman" font-size="14" text-anchor="middle">CheckTypeTestPrepare</text></g><g id="edge38" class="edge"><title>n27-&gt;n28</title><path fill="none" stroke="#333" d="M485.0996,-215.8314C485.0996,-208.131 485.0996,-198.9743 485.0996,-190.4166"/><polygon fill="#333" stroke="#333" points="488.6 -190.413 485.1 -180.413 481.6 -190.413 488.6 -190.413"/><text x="476.104" y="-210.431" fill="#000" font-family="Open Sans, Helvetica Neue, Helvetica, Arial, sans-serif" font-size="6" text-anchor="middle">success</text></g><g id="node30" class="node"><title>n29</title><polygon fill="#fff" stroke="#000" points="829.751 -108 674.448 -108 674.448 -72 829.751 -72 829.751 -108"/><text x="752.1" y="-85.8" fill="#000" font-family="Times New Roman" font-size="14" text-anchor="middle">CheckTypeTestGenerate</text></g><g id="edge40" class="edge"><title>n28-&gt;n29</title><path fill="none" stroke="#333" d="M552.1303,-143.9243C589.583,-133.8247 636.4063,-121.1982 675.327,-110.7027"/><polygon fill="#333" stroke="#333" points="676.298 -114.066 685.041 -108.083 674.475 -107.308 676.298 -114.066"/><text x="543.135" y="-138.524" fill="#000" font-family="Open Sans, Helvetica Neue, Helvetica, Arial, sans-serif" font-size="6" text-anchor="middle">success</text></g><g id="node33" class="node"><title>n32</title><polygon fill="#dc143c" stroke="#000" points="1113.528 -36 958.671 -36 958.671 0 1113.528 0 1113.528 -36"/><text x="1036.1" y="-13.8" fill="#fff" font-family="Times New Roman" font-size="14" text-anchor="middle">PromptToRunTypeTests</text></g><g id="edge41" class="edge"><title>n28-&gt;n32</title><path fill="none" stroke="#669" d="M559.2211,-145.4107C562.2142,-144.9041 565.1823,-144.4308 568.0996,-144 617.8308,-136.6564 981.7024,-141.5943 1019.0996,-108 1035.9452,-92.8674 1039.3098,-66.7209 1038.9789,-46.4966"/><polygon fill="none" stroke="#669" points="1042.464 -46.09 1038.499 -36.264 1035.471 -46.417 1042.464 -46.09"/><text x="567.049" y="-147.211" fill="#000" font-family="Open Sans, Helvetica Neue, Helvetica, Arial, sans-serif" font-size="6" text-anchor="middle">failure</text></g><g id="node31" class="node"><title>n30</title><polygon fill="green" stroke="#000" points="939.067 -36 825.132 -36 825.132 0 939.067 0 939.067 -36"/><text x="882.1" y="-13.8" fill="#fff" font-family="Times New Roman" font-size="14" text-anchor="middle">ReleaseComplete</text></g><g id="edge42" class="edge"><title>n29-&gt;n30</title><path fill="none" stroke="#225" d="M784.9041,-71.8314C801.6858,-62.5368 822.2981,-51.1208 840.2159,-41.1971"/><polygon fill="#225" stroke="#225" points="842.253 -44.07 849.306 -36.163 838.862 -37.946 842.253 -44.07"/><text x="775.909" y="-66.431" fill="#000" font-family="Open Sans, Helvetica Neue, Helvetica, Arial, sans-serif" font-size="6" text-anchor="middle">success</text></g><g id="edge43" class="edge"><title>n29-&gt;n32</title><path fill="none" stroke="#669" d="M823.3982,-71.9243C863.4043,-61.7819 913.4623,-49.0912 954.9646,-38.5694"/><polygon fill="none" stroke="#669" points="955.938 -41.933 964.772 -36.083 954.218 -35.148 955.938 -41.933"/><text x="815.57" y="-66.524" fill="#000" font-family="Open Sans, Helvetica Neue, Helvetica, Arial, sans-serif" font-size="6" text-anchor="middle">failure</text></g><g id="node34" class="node"><title>n33</title><polygon fill="#fff" stroke="#000" points="1006.483 -180 851.716 -180 851.716 -144 1006.483 -144 1006.483 -180"/><text x="929.1" y="-157.8" fill="#000" font-family="Times New Roman" font-size="14" text-anchor="middle">CheckTypeTestPrepare2</text></g><g id="edge44" class="edge"><title>n33-&gt;n32</title><path fill="none" stroke="#669" d="M1006.2348,-143.9809C1024.2606,-135.9901 1041.3237,-124.4995 1052.0996,-108 1064.2189,-89.4436 1058.3535,-64.3489 1050.5192,-45.3721"/><polygon fill="none" stroke="#669" points="1053.628 -43.752 1046.328 -36.073 1047.246 -46.628 1053.628 -43.752"/><text x="998.407" y="-138.581" fill="#000" font-family="Open Sans, Helvetica Neue, Helvetica, Arial, sans-serif" font-size="6" text-anchor="middle">failure</text></g><g id="node35" class="node"><title>n34</title><polygon fill="#fff" stroke="#000" points="1010.251 -108 847.948 -108 847.948 -72 1010.251 -72 1010.251 -108"/><text x="929.1" y="-85.8" fill="#000" font-family="Times New Roman" font-size="14" text-anchor="middle">CheckTypeTestGenerate2</text></g><g id="edge45" class="edge"><title>n33-&gt;n34</title><path fill="none" stroke="#333" d="M929.0996,-143.8314C929.0996,-136.131 929.0996,-126.9743 929.0996,-118.4166"/><polygon fill="#333" stroke="#333" points="932.6 -118.413 929.1 -108.413 925.6 -118.413 932.6 -118.413"/><text x="920.104" y="-138.431" fill="#000" font-family="Open Sans, Helvetica Neue, Helvetica, Arial, sans-serif" font-size="6" text-anchor="middle">success</text></g><g id="edge47" class="edge"><title>n34-&gt;n30</title><path fill="none" stroke="#225" d="M917.2395,-71.8314C911.9367,-63.7079 905.5759,-53.9637 899.7323,-45.0118"/><polygon fill="#225" stroke="#225" points="902.516 -42.874 894.119 -36.413 896.655 -46.7 902.516 -42.874"/><text x="908.244" y="-66.431" fill="#000" font-family="Open Sans, Helvetica Neue, Helvetica, Arial, sans-serif" font-size="6" text-anchor="middle">success</text></g><g id="edge46" class="edge"><title>n34-&gt;n32</title><path fill="none" stroke="#669" d="M956.1002,-71.8314C969.5327,-62.7927 985.9469,-51.7476 1000.4035,-42.0198"/><polygon fill="none" stroke="#669" points="1002.765 -44.649 1009.108 -36.163 998.857 -38.842 1002.765 -44.649"/><text x="948.272" y="-66.431" fill="#000" font-family="Open Sans, Helvetica Neue, Helvetica, Arial, sans-serif" font-size="6" text-anchor="middle">failure</text></g><g id="node37" class="node"><title>n36</title><polygon fill="#fff" stroke="#000" points="1051.952 -612 806.247 -612 806.247 -576 1051.952 -576 1051.952 -612"/><text x="929.1" y="-589.8" fill="#000" font-family="Times New Roman" font-size="14" text-anchor="middle">CheckDoesReleaseFromReleaseBranch2</text></g><g id="edge48" class="edge"><title>n35-&gt;n36</title><path fill="none" stroke="#333" d="M929.0996,-647.8314C929.0996,-640.131 929.0996,-630.9743 929.0996,-622.4166"/><polygon fill="#333" stroke="#333" points="932.6 -622.413 929.1 -612.413 925.6 -622.413 932.6 -622.413"/><text x="920.104" y="-642.431" fill="#000" font-family="Open Sans, Helvetica Neue, Helvetica, Arial, sans-serif" font-size="6" text-anchor="middle">success</text></g><g id="node38" class="node"><title>n37</title><polygon fill="#fff" stroke="#000" points="1008.929 -540 849.27 -540 849.27 -504 1008.929 -504 1008.929 -540"/><text x="929.1" y="-517.8" fill="#000" font-family="Times New Roman" font-size="14" text-anchor="middle">CheckOnReleaseBranch2</text></g><g id="edge49" class="edge"><title>n36-&gt;n37</title><path fill="none" stroke="#333" d="M929.0996,-575.8314C929.0996,-568.131 929.0996,-558.9743 929.0996,-550.4166"/><polygon fill="#333" stroke="#333" points="932.6 -550.413 929.1 -540.413 925.6 -550.413 932.6 -550.413"/><text x="920.104" y="-570.431" fill="#000" font-family="Open Sans, Helvetica Neue, Helvetica, Arial, sans-serif" font-size="6" text-anchor="middle">success</text></g><g id="node40" class="node"><title>n39</title><polygon fill="#fff" stroke="#000" points="1000.322 -324 857.877 -324 857.877 -288 1000.322 -288 1000.322 -324"/><text x="929.1" y="-301.8" fill="#000" font-family="Times New Roman" font-size="14" text-anchor="middle">CheckReleaseIsDone2</text></g><g id="edge50" class="edge"><title>n36-&gt;n39</title><path fill="none" stroke="#777" d="M973.87,-575.8595C990.0225,-567.2344 1006.9909,-555.3855 1018.0996,-540 1065.711,-474.0586 1095.4711,-428.1636 1051.0996,-360 1041.2373,-344.8495 1026.049,-333.9178 1009.6989,-326.0407"/><polygon fill="none" stroke="#777" points="1011.083 -322.826 1000.522 -321.971 1008.245 -329.225 1011.083 -322.826"/><text x="966.042" y="-570.46" fill="#000" font-family="Open Sans, Helvetica Neue, Helvetica, Arial, sans-serif" font-size="6" text-anchor="middle">failure</text></g><g id="node39" class="node"><title>n38</title><polygon fill="#fff" stroke="#000" points="1042.312 -396 815.887 -396 815.887 -360 1042.312 -360 1042.312 -396"/><text x="929.1" y="-373.8" fill="#000" font-family="Times New Roman" font-size="14" text-anchor="middle">CheckReleaseGroupIsBumpedPatch2</text></g><g id="edge51" class="edge"><title>n37-&gt;n38</title><path fill="none" stroke="#333" d="M929.0996,-503.7623C929.0996,-479.201 929.0996,-435.2474 929.0996,-406.3541"/><polygon fill="#333" stroke="#333" points="932.6 -406.09 929.1 -396.09 925.6 -406.09 932.6 -406.09"/><text x="920.104" y="-498.362" fill="#000" font-family="Open Sans, Helvetica Neue, Helvetica, Arial, sans-serif" font-size="6" text-anchor="middle">success</text></g><g id="node42" class="node"><title>n41</title><polygon fill="#fff" stroke="#000" points="755.706 -468 532.493 -468 532.493 -432 755.706 -432 755.706 -468"/><text x="644.1" y="-445.8" fill="#000" font-family="Times New Roman" font-size="14" text-anchor="middle">CheckReleaseGroupIsBumpedMinor</text></g><g id="edge52" class="edge"><title>n37-&gt;n41</title><path fill="none" stroke="#777" d="M857.5499,-503.9243C817.403,-493.7819 767.1688,-481.0912 725.5203,-470.5694"/><polygon fill="none" stroke="#777" points="726.231 -467.139 715.679 -468.083 724.517 -473.926 726.231 -467.139"/><text x="849.722" y="-498.524" fill="#000" font-family="Open Sans, Helvetica Neue, Helvetica, Arial, sans-serif" font-size="6" text-anchor="middle">failure</text></g><g id="edge54" class="edge"><title>n38-&gt;n19</title><path fill="none" stroke="#777" d="M897.8901,-359.9923C882.4087,-350.322 863.9052,-337.6064 849.0996,-324 803.7164,-282.2929 810.3749,-254.3224 762.0996,-216 746.1185,-203.3137 726.6697,-192.6339 708.4926,-184.2083"/><polygon fill="none" stroke="#777" points="709.685 -180.907 699.128 -180.009 706.821 -187.294 709.685 -180.907"/><text x="890.062" y="-354.592" fill="#000" font-family="Open Sans, Helvetica Neue, Helvetica, Arial, sans-serif" font-size="6" text-anchor="middle">failure</text></g><g id="edge53" class="edge"><title>n38-&gt;n39</title><path fill="none" stroke="#333" d="M929.0996,-359.8314C929.0996,-352.131 929.0996,-342.9743 929.0996,-334.4166"/><polygon fill="#333" stroke="#333" points="932.6 -334.413 929.1 -324.413 925.6 -334.413 932.6 -334.413"/><text x="920.104" y="-354.431" fill="#000" font-family="Open Sans, Helvetica Neue, Helvetica, Arial, sans-serif" font-size="6" text-anchor="middle">success</text></g><g id="edge56" class="edge"><title>n39-&gt;n31</title><path fill="none" stroke="#669" d="M977.297,-287.8314C1003.2962,-278.0306 1035.5532,-265.8709 1062.8277,-255.5894"/><polygon fill="none" stroke="#669" points="1064.126 -258.84 1072.249 -252.038 1061.657 -252.29 1064.126 -258.84"/><text x="969.469" y="-282.431" fill="#000" font-family="Open Sans, Helvetica Neue, Helvetica, Arial, sans-serif" font-size="6" text-anchor="middle">failure</text></g><g id="node41" class="node"><title>n40</title><polygon fill="#fff" stroke="#000" points="1044.206 -252 813.993 -252 813.993 -216 1044.206 -216 1044.206 -252"/><text x="929.1" y="-229.8" fill="#000" font-family="Times New Roman" font-size="14" text-anchor="middle">CheckReleaseGroupIsBumpedMinor2</text></g><g id="edge55" class="edge"><title>n39-&gt;n40</title><path fill="none" stroke="#333" d="M929.0996,-287.8314C929.0996,-280.131 929.0996,-270.9743 929.0996,-262.4166"/><polygon fill="#333" stroke="#333" points="932.6 -262.413 929.1 -252.413 925.6 -262.413 932.6 -262.413"/><text x="920.104" y="-282.431" fill="#000" font-family="Open Sans, Helvetica Neue, Helvetica, Arial, sans-serif" font-size="6" text-anchor="middle">success</text></g><g id="edge58" class="edge"><title>n40-&gt;n19</title><path fill="none" stroke="#777" d="M859.0562,-215.9243C819.8374,-205.8033 770.7853,-193.1447 730.0643,-182.6361"/><polygon fill="none" stroke="#777" points="730.729 -179.193 720.172 -180.083 728.98 -185.971 730.729 -179.193"/><text x="851.228" y="-210.524" fill="#000" font-family="Open Sans, Helvetica Neue, Helvetica, Arial, sans-serif" font-size="6" text-anchor="middle">failure</text></g><g id="edge57" class="edge"><title>n40-&gt;n33</title><path fill="none" stroke="#333" d="M929.0996,-215.8314C929.0996,-208.131 929.0996,-198.9743 929.0996,-190.4166"/><polygon fill="#333" stroke="#333" points="932.6 -190.413 929.1 -180.413 925.6 -190.413 932.6 -190.413"/><text x="920.104" y="-210.431" fill="#000" font-family="Open Sans, Helvetica Neue, Helvetica, Arial, sans-serif" font-size="6" text-anchor="middle">success</text></g><g id="edge60" class="edge"><title>n41-&gt;n19</title><path fill="none" stroke="#777" d="M687.6418,-431.8675C704.9834,-423.0132 724.1024,-410.9973 738.0996,-396 762.3766,-369.9884 765.1184,-358.6739 773.0996,-324 776.6886,-308.4077 779.1334,-302.8187 773.0996,-288 755.5546,-244.9103 715.399,-208.5222 685.7175,-186.0966"/><polygon fill="none" stroke="#777" points="687.777 -183.266 677.651 -180.148 683.622 -188.9 687.777 -183.266"/><text x="679.814" y="-426.467" fill="#000" font-family="Open Sans, Helvetica Neue, Helvetica, Arial, sans-serif" font-size="6" text-anchor="middle">failure</text></g><g id="node43" class="node"><title>n42</title><polygon fill="#fff" stroke="#000" points="729.045 -396 559.154 -396 559.154 -360 729.045 -360 729.045 -396"/><text x="644.1" y="-373.8" fill="#000" font-family="Times New Roman" font-size="14" text-anchor="middle">CheckReleaseBranchExists</text></g><g id="edge59" class="edge"><title>n41-&gt;n42</title><path fill="none" stroke="#333" d="M644.0996,-431.8314C644.0996,-424.131 644.0996,-414.9743 644.0996,-406.4166"/><polygon fill="#333" stroke="#333" points="647.6 -406.413 644.1 -396.413 640.6 -406.413 647.6 -406.413"/><text x="635.104" y="-426.431" fill="#000" font-family="Open Sans, Helvetica Neue, Helvetica, Arial, sans-serif" font-size="6" text-anchor="middle">success</text></g><g id="edge61" class="edge"><title>n42-&gt;n26</title><path fill="none" stroke="#333" d="M603.9772,-359.8314C582.8064,-350.2446 556.6513,-338.4008 534.2693,-328.2655"/><polygon fill="#333" stroke="#333" points="535.487 -324.975 524.933 -324.038 532.599 -331.351 535.487 -324.975"/><text x="594.982" y="-354.431" fill="#000" font-family="Open Sans, Helvetica Neue, Helvetica, Arial, sans-serif" font-size="6" text-anchor="middle">success</text></g><g id="node44" class="node"><title>n43</title><polygon fill="#dc143c" stroke="#000" points="763.865 -324 570.334 -324 570.334 -288 763.865 -288 763.865 -324"/><text x="667.1" y="-301.8" fill="#fff" font-family="Times New Roman" font-size="14" text-anchor="middle">PromptToCreateReleaseBranch</text></g><g id="edge62" class="edge"><title>n42-&gt;n43</title><path fill="none" stroke="#669" d="M649.9035,-359.8314C652.3904,-352.0463 655.3527,-342.7729 658.1121,-334.1347"/><polygon fill="none" stroke="#669" points="661.509 -335.004 661.218 -324.413 654.841 -332.874 661.509 -335.004"/><text x="642.075" y="-354.431" fill="#000" font-family="Open Sans, Helvetica Neue, Helvetica, Arial, sans-serif" font-size="6" text-anchor="middle">failure</text></g><g id="node46" class="node"><title>n45</title><polygon fill="#fff" stroke="#000" points="1202.952 -900 957.247 -900 957.247 -864 1202.952 -864 1202.952 -900"/><text x="1080.1" y="-877.8" fill="#000" font-family="Times New Roman" font-size="14" text-anchor="middle">CheckDoesReleaseFromReleaseBranch3</text></g><g id="edge63" class="edge"><title>n44-&gt;n45</title><path fill="none" stroke="#333" d="M1054.6792,-935.8314C1058.4354,-927.8771 1062.9253,-918.369 1067.0794,-909.5723"/><polygon fill="#333" stroke="#333" points="1070.299 -910.95 1071.404 -900.413 1063.969 -907.961 1070.299 -910.95"/><text x="1045.684" y="-930.431" fill="#000" font-family="Open Sans, Helvetica Neue, Helvetica, Arial, sans-serif" font-size="6" text-anchor="middle">success</text></g><g id="node47" class="node"><title>n46</title><polygon fill="#fff" stroke="#000" points="1162.873 -828 997.326 -828 997.326 -792 1162.873 -792 1162.873 -828"/><text x="1080.1" y="-805.8" fill="#000" font-family="Times New Roman" font-size="14" text-anchor="middle">CheckMainNextIntegrated</text></g><g id="edge64" class="edge"><title>n45-&gt;n46</title><path fill="none" stroke="#333" d="M1080.0996,-863.8314C1080.0996,-856.131 1080.0996,-846.9743 1080.0996,-838.4166"/><polygon fill="#333" stroke="#333" points="1083.6 -838.413 1080.1 -828.413 1076.6 -838.413 1083.6 -838.413"/><text x="1071.104" y="-858.431" fill="#000" font-family="Open Sans, Helvetica Neue, Helvetica, Arial, sans-serif" font-size="6" text-anchor="middle">success</text></g><g id="node48" class="node"><title>n47</title><polygon fill="#fff" stroke="#000" points="1151.322 -756 1008.877 -756 1008.877 -720 1151.322 -720 1151.322 -756"/><text x="1080.1" y="-733.8" fill="#000" font-family="Times New Roman" font-size="14" text-anchor="middle">CheckReleaseIsDone3</text></g><g id="edge65" class="edge"><title>n45-&gt;n47</title><path fill="none" stroke="#777" d="M1029.0141,-863.9348C1013.033,-855.5922 997.2101,-843.9115 988.0996,-828 980.1494,-814.115 980.1494,-805.885 988.0996,-792 995.5019,-779.0719 1007.3354,-768.9368 1020.0846,-761.1159"/><polygon fill="none" stroke="#777" points="1022.033 -764.035 1029.014 -756.065 1018.587 -757.942 1022.033 -764.035"/><text x="1021.186" y="-858.535" fill="#000" font-family="Open Sans, Helvetica Neue, Helvetica, Arial, sans-serif" font-size="6" text-anchor="middle">failure</text></g><g id="edge66" class="edge"><title>n46-&gt;n47</title><path fill="none" stroke="#333" d="M1080.0996,-791.8314C1080.0996,-784.131 1080.0996,-774.9743 1080.0996,-766.4166"/><polygon fill="#333" stroke="#333" points="1083.6 -766.413 1080.1 -756.413 1076.6 -766.413 1083.6 -766.413"/><text x="1071.104" y="-786.431" fill="#000" font-family="Open Sans, Helvetica Neue, Helvetica, Arial, sans-serif" font-size="6" text-anchor="middle">success</text></g><g id="node49" class="node"><title>n48</title><polygon fill="#fff" stroke="#000" points="1328.929 -756 1169.271 -756 1169.271 -720 1328.929 -720 1328.929 -756"/><text x="1249.1" y="-733.8" fill="#000" font-family="Times New Roman" font-size="14" text-anchor="middle">CheckOnReleaseBranch3</text></g><g id="edge67" class="edge"><title>n46-&gt;n48</title><path fill="none" stroke="#777" d="M1122.7454,-791.8314C1145.4486,-782.159 1173.5447,-770.1891 1197.4738,-759.9944"/><polygon fill="none" stroke="#777" points="1198.932 -763.178 1206.76 -756.038 1196.189 -756.738 1198.932 -763.178"/><text x="1114.917" y="-786.431" fill="#000" font-family="Open Sans, Helvetica Neue, Helvetica, Arial, sans-serif" font-size="6" text-anchor="middle">failure</text></g><g id="edge69" class="edge"><title>n47-&gt;n31</title><path fill="none" stroke="#225" d="M1086.4618,-719.615C1095.2681,-692.4838 1110.0996,-639.9662 1110.0996,-594 1110.0996,-594 1110.0996,-594 1110.0996,-378 1110.0996,-337.7793 1114.0301,-291.391 1116.9628,-262.3773"/><polygon fill="#225" stroke="#225" points="1120.472 -262.466 1118.028 -252.157 1113.51 -261.741 1120.472 -262.466"/><text x="1077.467" y="-714.215" fill="#000" font-family="Open Sans, Helvetica Neue, Helvetica, Arial, sans-serif" font-size="6" text-anchor="middle">success</text></g><g id="edge68" class="edge"><title>n47-&gt;n35</title><path fill="none" stroke="#777" d="M1041.9959,-719.8314C1021.9801,-710.2874 997.2729,-698.5065 976.0802,-688.4013"/><polygon fill="none" stroke="#777" points="977.462 -685.183 966.929 -684.038 974.449 -691.501 977.462 -685.183"/><text x="1034.168" y="-714.431" fill="#000" font-family="Open Sans, Helvetica Neue, Helvetica, Arial, sans-serif" font-size="6" text-anchor="middle">failure</text></g><g id="edge70" class="edge"><title>n48-&gt;n9</title><path fill="none" stroke="#225" d="M1263.4913,-719.9798C1271.4317,-709.701 1281.2443,-696.4255 1289.0996,-684 1301.954,-663.6668 1314.6821,-639.5708 1323.7984,-621.4307"/><polygon fill="#225" stroke="#225" points="1327.155 -622.54 1328.469 -612.027 1320.886 -619.426 1327.155 -622.54"/><text x="1254.496" y="-714.58" fill="#000" font-family="Open Sans, Helvetica Neue, Helvetica, Arial, sans-serif" font-size="6" text-anchor="middle">success</text></g><g id="node50" class="node"><title>n49</title><polygon fill="#fff" stroke="#000" points="1279.719 -684 1154.48 -684 1154.48 -648 1279.719 -648 1279.719 -684"/><text x="1217.1" y="-661.8" fill="#000" font-family="Times New Roman" font-size="14" text-anchor="middle">CheckBranchName</text></g><g id="edge71" class="edge"><title>n48-&gt;n49</title><path fill="none" stroke="#777" d="M1241.0246,-719.8314C1237.4894,-711.8771 1233.2636,-702.369 1229.354,-693.5723"/><polygon fill="none" stroke="#777" points="1232.543 -692.13 1225.283 -684.413 1226.146 -694.973 1232.543 -692.13"/><text x="1233.196" y="-714.431" fill="#000" font-family="Open Sans, Helvetica Neue, Helvetica, Arial, sans-serif" font-size="6" text-anchor="middle">failure</text></g><g id="edge73" class="edge"><title>n49-&gt;n9</title><path fill="none" stroke="#669" d="M1247.3807,-647.8314C1263.6993,-638.0402 1283.9417,-625.8947 1301.0669,-615.6196"/><polygon fill="none" stroke="#669" points="1302.927 -618.586 1309.701 -610.439 1299.325 -612.583 1302.927 -618.586"/><text x="1239.553" y="-642.431" fill="#000" font-family="Open Sans, Helvetica Neue, Helvetica, Arial, sans-serif" font-size="6" text-anchor="middle">failure</text></g><g id="node51" class="node"><title>n50</title><polygon fill="#dc143c" stroke="#000" points="1291.835 -612 1142.364 -612 1142.364 -576 1291.835 -576 1291.835 -612"/><text x="1217.1" y="-589.8" fill="#fff" font-family="Times New Roman" font-size="14" text-anchor="middle">PromptToIntegrateNext</text></g><g id="edge72" class="edge"><title>n49-&gt;n50</title><path fill="none" stroke="#225" d="M1217.0996,-647.8314C1217.0996,-640.131 1217.0996,-630.9743 1217.0996,-622.4166"/><polygon fill="#225" stroke="#225" points="1220.6 -622.413 1217.1 -612.413 1213.6 -622.413 1220.6 -622.413"/><text x="1208.104" y="-642.431" fill="#000" font-family="Open Sans, Helvetica Neue, Helvetica, Arial, sans-serif" font-size="6" text-anchor="middle">success</text></g></g></svg>