<svg xmlns="http://www.w3.org/2000/svg" xmlns:xlink="http://www.w3.org/1999/xlink" width="217pt" height="260pt" viewBox="0 0 217.31 260"><g id="graph0" class="graph" transform="scale(1 1) rotate(0) translate(4 256)"><title>G</title><polygon fill="#fff" stroke="transparent" points="-4 4 -4 -256 213.312 -256 213.312 4 -4 4"/><g id="node1" class="node"><title>root</title><ellipse cx="75.176" cy="-234" fill="none" stroke="#000" rx="28.413" ry="18"/><text x="75.176" y="-229.8" fill="#000" font-family="Times,serif" font-size="14" text-anchor="middle">both</text></g><g id="node2" class="node"><title>l</title><ellipse cx="35.176" cy="-162" fill="none" stroke="#000" rx="35.353" ry="18"/><text x="35.176" y="-157.8" fill="#000" font-family="Times,serif" font-size="14" text-anchor="middle">empty</text></g><g id="edge1" class="edge"><title>root-&gt;l</title><path fill="none" stroke="#000" d="M65.6965,-216.937C60.9345,-208.3654 55.0601,-197.7914 49.7407,-188.2165"/><polygon fill="#000" stroke="#000" points="52.781 -186.482 44.865 -179.441 46.662 -189.882 52.781 -186.482"/></g><g id="node3" class="node"><title>r</title><ellipse cx="116.176" cy="-162" fill="none" stroke="#000" rx="28.413" ry="18"/><text x="116.176" y="-157.8" fill="#000" font-family="Times,serif" font-size="14" text-anchor="middle">both</text></g><g id="edge2" class="edge"><title>root-&gt;r</title><path fill="none" stroke="#000" d="M84.8924,-216.937C89.8453,-208.2393 95.9721,-197.4799 101.4873,-187.7948"/><polygon fill="#000" stroke="#000" points="104.622 -189.362 106.529 -178.94 98.539 -185.898 104.622 -189.362"/></g><g id="node4" class="node"><title>rl</title><ellipse cx="76.176" cy="-90" fill="none" stroke="#000" rx="33.045" ry="18"/><text x="76.176" y="-85.8" fill="#000" font-family="Times,serif" font-size="14" text-anchor="middle">dense</text></g><g id="edge3" class="edge"><title>r-&gt;rl</title><path fill="none" stroke="#000" d="M106.6965,-144.937C101.9345,-136.3654 96.0601,-125.7914 90.7407,-116.2165"/><polygon fill="#000" stroke="#000" points="93.781 -114.483 85.865 -107.441 87.662 -117.882 93.781 -114.483"/></g><g id="node5" class="node"><title>rr</title><ellipse cx="156.176" cy="-90" fill="none" stroke="#000" rx="29.053" ry="18"/><text x="156.176" y="-85.8" fill="#000" font-family="Times,serif" font-size="14" text-anchor="middle">right</text></g><g id="edge4" class="edge"><title>r-&gt;rr</title><path fill="none" stroke="#000" d="M125.6554,-144.937C130.4174,-136.3654 136.2919,-125.7914 141.6112,-116.2165"/><polygon fill="#000" stroke="#000" points="144.69 -117.882 146.487 -107.441 138.571 -114.483 144.69 -117.882"/></g><g id="node6" class="node"><title>rrr</title><ellipse cx="156.176" cy="-18" fill="none" stroke="#000" rx="53.272" ry="18"/><text x="156.176" y="-13.8" fill="#000" font-family="Times,serif" font-size="14" text-anchor="middle">Key: [1, 2]</text></g><g id="edge5" class="edge"><title>rr-&gt;rrr</title><path fill="none" stroke="#000" d="M156.176,-71.8314C156.176,-64.131 156.176,-54.9743 156.176,-46.4166"/><polygon fill="#000" stroke="#000" points="159.676 -46.413 156.176 -36.413 152.676 -46.413 159.676 -46.413"/></g></g></svg>